HIERARCHY
ROOT simHips
{
  OFFSET -18.174 98.0468 -2.14481
  CHANNELS 6 Xposition Yposition Zposition Zrotation Xrotation Yrotation
  JOINT simSpine
  {
    OFFSET -0.000355721 21.3001 -0.016921
    CHANNELS 3 Zrotation Xrotation Yrotation
    JOINT simLeftArm
    {
      OFFSET 13.5181 21.3012 0
      CHANNELS 3 Zrotation Xrotation Yrotation
      JOINT simLeftForeArm
      {
        OFFSET 24.5783 0 0
        CHANNELS 3 Zrotation Xrotation Yrotation
        JOINT simLeftHand
        {
          OFFSET 24.5783 0 0
          CHANNELS 3 Zrotation Xrotation Yrotation
          End Site
          {
            OFFSET 7.32568 1.52588e-005 0.0169305
          }
        }
      }
    }
    JOINT simHead
    {
      OFFSET 0 27.4458 -0.00489235
      CHANNELS 3 Zrotation Xrotation Yrotation
      End Site
      {
        OFFSET 0 0 0
      }
    }
    JOINT simRightArm
    {
      OFFSET -13.5174 21.3012 0
      CHANNELS 3 Zrotation Xrotation Yrotation
      JOINT simRightForeArm
      {
        OFFSET -24.5783 0 0
        CHANNELS 3 Zrotation Xrotation Yrotation
        JOINT simRightHand
        {
          OFFSET -24.5783 0 0
          CHANNELS 3 Zrotation Xrotation Yrotation
          End Site
          {
            OFFSET -7.32568 1.52588e-005 0.0169305
          }
        }
      }
    }
  }
  JOINT simRightUpLeg
  {
    OFFSET -8.44614 -9.41038 0.835684
    CHANNELS 3 Zrotation Xrotation Yrotation
    JOINT simRightLeg
    {
      OFFSET 0 -40.9639 0
      CHANNELS 3 Zrotation Xrotation Yrotation
      JOINT simRightFoot
      {
        OFFSET 0 -40.9639 0
        CHANNELS 3 Zrotation Xrotation Yrotation
        End Site
        {
          OFFSET 0.50614 -9.67405 14.6709
        }
      }
    }
  }
  JOINT simLeftUpLeg
  {
    OFFSET 8.44614 -9.41038 0.835684
    CHANNELS 3 Zrotation Xrotation Yrotation
    JOINT simLeftLeg
    {
      OFFSET 0 -40.9639 0
      CHANNELS 3 Zrotation Xrotation Yrotation
      JOINT simLeftFoot
      {
        OFFSET 0 -40.9639 0
        CHANNELS 3 Zrotation Xrotation Yrotation
        End Site
        {
          OFFSET -0.50614 -9.67405 14.6709
        }
      }
    }
  }
}
MOTION
Frames:	8
Frame Time:	0.0333333
-18.174 98.0468 -2.14481 0.00164684 -3.64562e-017 1.78946e-007 0.00730506 -9.72142e-016 -0.00240826 -6.83019e-006 -1.70755e-006 -1.53679e-005 -0.00974972 1.70755e-006 9.09842e-005 -0.00306299 -5.87685e-021 0.00390373 -4.26887e-007 3.97569e-016 -1.06722e-007 6.83019e-006 -8.53773e-007 5.12264e-006 -7.25707e-006 -5.97642e-006 8.12517e-005 -5.75745e-013 6.83019e-006 9.76607e-006 -0.662584 7.91002 0.0458148 -8.29443e-006 0.000905015 -4.33515e-007 0.662594 -7.91092 0.0458163 2.17405 -0.0459342 -0.120225 0.00543327 12.7526 -0.0731265 -2.21222 -12.7047 -0.295059 
-18.1745 98.0463 -2.1417 0.0016484 0.00590631 -0.0150841 0.00730687 0.0430754 -0.00240826 0.0703368 0.0525302 0.0682441 -0.00974976 0.0240792 9.09842e-005 -0.00306376 0.0113084 0.00390373 -0.133369 -0.0575125 -0.191412 -0.0563755 0.0843153 0.0173577 0.0319093 -0.0119969 8.12517e-005 -0.00136481 -0.0013658 0.0142267 -0.656838 7.90672 0.0751914 -0.00406393 0.0438904 -0.00387724 0.636586 -7.95926 0.0537153 2.18732 -0.0141967 -0.137338 0.00246442 12.6936 -0.0599496 -2.2266 -12.6773 -0.279378 
-18.1981 98.0454 -2.14015 0.00164716 0.0158862 -0.00114639 -0.00195565 0.0678706 0.000843304 0.165639 0.0817194 0.0953237 -0.0097498 0.0533869 9.09843e-005 -0.00305992 0.0206098 -0.0085334 -0.235852 -0.0677569 -0.421274 -0.0666132 0.162323 -0.00360078 0.0130986 0.019051 8.12517e-005 -0.0416373 0.0258608 0.15223 -0.643457 7.97246 0.071612 -0.0146243 -0.0451558 -0.0136617 0.622266 -7.94122 0.0553216 2.19478 -0.0437559 -0.153671 0.00249963 12.7677 -0.0597669 -2.24813 -12.7065 -0.271977 
-18.229 98.0444 -2.1102 0.00860188 0.027913 0.0302599 -0.0173596 0.0946643 0.00708158 0.277754 0.101286 0.0996301 -0.00951553 0.0497831 -0.000132089 0.00376656 0.021307 -0.0308471 -0.285237 -0.0215686 -0.63239 -0.107853 0.0817815 -0.0654673 -0.00893452 -0.0398788 8.12517e-005 -0.0389939 0.0153988 0.0231105 -0.621454 7.9071 0.0605098 -0.0216768 0.0593731 -0.0249207 0.625693 -8.0107 0.0405416 2.19775 0.0166851 -0.169263 0.00422762 12.6695 -0.0641138 -2.2634 -12.6885 -0.275201 
-18.2634 98.0444 -2.07936 0.0154628 0.0413085 0.0660866 -0.0136467 0.11791 0.0166395 0.357798 0.13286 0.0458651 -0.00463165 0.0590613 -0.0219484 0.0115292 0.0408104 -0.0633215 -0.337751 0.0498906 -0.683173 -0.164324 0.0674565 -0.110235 -0.00578453 -0.0194124 6.9183e-005 -0.0335081 0.0228348 0.096313 -0.597993 7.9712 0.0467146 -0.0227587 -0.0245048 -0.0450096 0.620982 -7.999 0.0200838 2.22228 -0.0200279 -0.192753 0.00811645 12.7148 -0.0775847 -2.3168 -12.7257 -0.29576 
-18.298 98.0448 -2.04875 0.0251357 0.0490926 0.119486 -0.00309904 0.155396 0.0141862 0.370482 0.156236 0.0194067 0.0311223 0.043839 -0.15613 0.0336405 0.0504674 -0.122321 -0.371758 0.14156 -0.649938 -0.189742 0.0741361 -0.164857 0.0182195 -0.0778391 0.0380287 -0.0313136 -0.000867992 0.0515617 -0.576684 7.91227 0.0506491 -0.0168264 0.103689 -0.0681344 0.629891 -8.06144 -0.00257185 2.23966 0.0129508 -0.201395 0.0109791 12.6652 -0.0934311 -2.31781 -12.6847 -0.317708 
-18.3351 98.0495 -2.0187 0.0357651 0.0569322 0.166808 0.00846951 0.19964 0.0119621 0.28583 0.186493 0.00227119 0.0888694 0.0590825 -0.334489 0.05405 0.0657045 -0.240569 -0.366629 0.214228 -0.648875 -0.182517 0.163306 -0.186906 0.0101413 -0.0550443 0.142015 -0.0422331 0.0110811 0.249455 -0.575913 8.01396 0.0174235 0.0089237 -0.0285443 -0.0949939 0.585614 -7.97758 0.0159558 2.25375 0.0465154 -0.214303 0.0103151 12.631 -0.108301 -2.32228 -12.6811 -0.333483 
-18.3818 98.0539 -1.99209 0.0467362 0.0616519 0.182003 0.0580006 0.236375 0.0224369 0.113529 0.319701 -0.00499201 0.16059 0.0976948 -0.500724 0.0994197 0.0916192 -0.401172 -0.417382 0.27083 -0.649664 -0.210141 0.0582848 -0.176259 -0.0299718 -0.0168621 0.2195 -0.0687761 0.0334247 0.388451 -0.571947 7.93638 -0.0534055 0.0364953 0.119494 -0.12553 0.544602 -8.01633 0.0467161 2.28266 0.0771985 -0.223341 0.00694729 12.5742 -0.126891 -2.37913 -12.6672 -0.346262 
